<!-- icon666.com - MILLIONS vector ICONS FREE --><svg version="1.1" id="Layer_1" xmlns="http://www.w3.org/2000/svg" xmlns:xlink="http://www.w3.org/1999/xlink" x="0px" y="0px" viewBox="0 0 413.2 413.2" style="enable-background:new 0 0 413.2 413.2;" xml:space="preserve"><path style="fill:#968377;" d="M368.797,167.2c-2.8-21.6-10-41.6-20-59.2l26-29.2c7.2-8,10.8-18.4,10-28.8s-5.2-20.4-13.2-27.6 c-7.2-6.4-16.8-10-26.8-10c-11.2,0-22.4,4.8-30,13.2l-22,24.8c-24.8-16-54.8-25.2-86.4-25.2l0,0c-31.6,0-61.6,9.2-86.8,24.8 l-22-24.8c-7.6-8.4-18.4-13.2-30-13.2c-10,0-19.2,3.6-26.8,10c-8,7.2-12.8,16.8-13.2,27.6s3.2,20.8,10,28.8l26,29.2 c-10.4,18-17.2,38-20,59.2l-20.4,154.4l183.2,80l183.2-80L368.797,167.2z"></path><g style="opacity:0.2;"><path style="fill:#0C0F13;" d="M327.997,244.8l-13.2,108.8l75.2-32.4l-20.8-154c-2.8-21.6-10-41.6-20-59.2l25.2-28 c6.8-7.6,11.2-17.6,11.2-28c0-11.2-4.8-22-13.2-29.2c-10-9.2-24.4-12.4-38-8.8c-7.6,2-14,6.8-19.2,12.4l-21.6,24 c-25.6-16-55.6-25.2-87.2-25.2l0,0c-13.2,0-25.6,1.6-38,4.4c60.8,4.4,111.2,29.6,141.2,94.8 C327.197,162,332.797,203.6,327.997,244.8z"></path></g><path style="fill:#454B54;" d="M389.597,333.2c-6,0-11.2-4.4-12-10.4l-20.8-154c-2.4-19.6-8.8-38-18.4-54.8c-2.4-4.4-2-10,1.6-14 l26-29.2c4.8-5.6,7.6-12.8,7.2-20.4c-0.4-7.6-3.6-14.4-9.2-19.2c-5.2-4.8-11.6-7.2-18.8-7.2c-8,0-15.6,3.2-20.8,9.2l-22,24.8 c-4,4.4-10.4,5.2-15.2,2c-24.4-14.8-52.4-22.8-80.8-22.8s-56.4,8-80.4,23.2c-4.8,3.2-11.6,2-15.2-2l-22-25.2 c-5.2-6-12.8-9.2-20.8-9.2c-6.8,0-13.6,2.4-18.8,7.2c-5.6,4.8-8.8,12-9.2,19.2c-0.4,7.6,2,14.8,7.2,20.4l26,29.2c3.6,4,4,9.6,1.6,14 c-9.6,17.2-16,35.6-18.8,54.8l-20.8,154c-0.8,6.4-6.8,11.2-13.6,10.4c-6.4-0.8-11.2-6.8-10.4-13.6l20.8-154 c2.8-19.6,8.4-38.4,17.6-56l-20.4-22.8c-9.2-10.4-14-23.6-13.2-37.6c0.8-14,6.8-26.8,17.2-36c9.6-8.4,22-13.2,34.8-13.2 c14.8,0,28.8,6.4,38.8,17.2l15.6,17.6c25.6-14,54.4-21.6,84-21.6s58.4,7.6,84.4,21.6l15.6-17.6c10-11.2,24-17.2,38.8-17.2 c12.8,0,25.2,4.8,34.8,13.2c10.4,9.2,16.4,22,17.2,36c0.8,14-4,27.2-13.2,37.6l-20.4,22.8c8.8,17.6,14.8,36.4,17.6,56l20.8,154 c0.8,6.4-3.6,12.8-10.4,13.6C390.797,333.2,389.997,333.2,389.597,333.2z"></path><g><path style="fill:#454B54;" d="M368.797,179.2c-6,0-11.2-4.4-12-10.4c-4.4-32-18.4-61.6-41.2-84.8c-4.4-4.8-4.4-12.4,0.4-16.8 c4.8-4.4,12.4-4.4,16.8,0.4c26,27.2,42.4,61.2,47.6,98.4c0.8,6.4-3.6,12.8-10.4,13.6C369.997,179.2,369.197,179.2,368.797,179.2z"></path><path style="fill:#454B54;" d="M43.997,179.2c-0.4,0-1.2,0-1.6,0c-6.4-0.8-11.2-6.8-10.4-13.6c4.8-36.8,21.2-70.8,46.8-97.6 c4.4-4.8,12-4.8,16.8-0.4c4.8,4.4,4.8,12,0.4,16.8c-22,23.2-36,52.4-40.4,84.4C55.197,174.8,49.997,179.2,43.997,179.2z"></path></g><path style="fill:#B7A59F;" d="M146.397,93.2l-8.4,9.6c-32.4,36.4-44.4,86.4-32.8,134l21.2,84.4l80,80l80-80l21.2-84.4 c12-47.2-0.4-97.2-32.8-134l-8.4-9.6C234.397,57.2,178.397,57.2,146.397,93.2z"></path><path style="fill:#E5C6B5;" d="M206.397,193.6L206.397,193.6c-12.4,0-23.2,7.2-28.4,18l-45.2,95.6c-4,8.8-4,18.8,0.4,27.6l15.2,30.4 c10.8,22,33.2,35.6,58,35.6l0,0c24.4,0,46.8-14,58-35.6l15.2-30.4c4.4-8.8,4.4-18.8,0.4-27.6l-45.2-95.6 C229.597,200.8,218.797,193.6,206.397,193.6L206.397,193.6z"></path><path style="fill:#5D626C;" d="M201.997,368.8c-11.2-1.2-20.4-8.8-25.6-18.8l-14.8-29.6l0,0c17.6-37.6,71.2-37.6,88.8,0l0,0 l-15.2,30.4C229.597,363.6,216.397,370.8,201.997,368.8z"></path><g style="opacity:0.2;"><path style="fill:#0C0F13;" d="M279.997,307.2l-45.2-95.6c-5.2-11.2-16.4-18-28.4-18l21.6,67.6c14,44.4,3.6,93.6-28.8,127.2 c-4.8,5.2-9.2,8.8-12.4,10c13.2,4.4,28.4,4.4,43.2-1.2c15.6-6,28-18.4,35.6-33.2l14.4-28.8 C283.997,326.4,283.997,316,279.997,307.2z"></path></g><g><path style="fill:#454B54;" d="M206.397,413.2c-29.2,0-55.6-16.4-68.8-42.4l-15.2-30.4c-6-12-6-26-0.4-38l44.8-95.6 c7.2-15.2,22.4-24.8,39.2-24.8s32.4,10,39.2,24.8l44.8,95.6c5.6,12,5.6,26-0.4,38l-15.2,30.4 C261.997,396.8,235.597,413.2,206.397,413.2z M206.397,205.6c-7.6,0-14.4,4.4-17.6,11.2l-45.2,95.6c-2.4,5.6-2.4,11.6,0.4,17.2 l15.2,30.4c8.8,18,27.2,29.2,47.2,29.2s38-11.2,47.2-29.2l15.2-30.4c2.8-5.2,2.8-11.6,0.4-17.2l-45.2-95.6 C220.797,210,213.997,205.6,206.397,205.6z"></path><path style="fill:#454B54;" d="M146.397,205.6h-20c-6.8,0-12-5.2-12-12s5.2-12,12-12h20c6.8,0,12,5.2,12,12 S153.197,205.6,146.397,205.6z"></path><path style="fill:#454B54;" d="M286.397,205.6h-20c-6.8,0-12-5.2-12-12s5.2-12,12-12h20c6.8,0,12,5.2,12,12 S293.197,205.6,286.397,205.6z"></path></g></svg>